<svg width="649" height="185" viewBox="0 0 649 185" fill="none" xmlns="http://www.w3.org/2000/svg">
<path d="M29.8418 168.031H639.436" stroke="#CCCCCC" stroke-dasharray="4 2"/>
<path d="M29.8418 127.472H639.436" stroke="#CCCCCC" stroke-dasharray="4 2"/>
<path d="M29.8418 86.9121H639.436" stroke="#CCCCCC" stroke-dasharray="4 2"/>
<path d="M29.8418 46.3535H639.436" stroke="#CCCCCC" stroke-dasharray="4 2"/>
<path d="M29.8418 5.79395H639.436" stroke="#CCCCCC" stroke-dasharray="4 2"/>
<path d="M30.457 5.37988V168.445" stroke="#CCCCCC" stroke-dasharray="4 2"/>
<path d="M73.9116 5.37988V168.445" stroke="#CCCCCC" stroke-dasharray="4 2"/>
<path d="M117.366 5.37988V168.445" stroke="#CCCCCC" stroke-dasharray="4 2"/>
<path d="M160.821 5.37988V168.445" stroke="#CCCCCC" stroke-dasharray="4 2"/>
<path d="M204.275 5.37988V168.445" stroke="#CCCCCC" stroke-dasharray="4 2"/>
<path d="M247.729 5.37988V168.445" stroke="#CCCCCC" stroke-dasharray="4 2"/>
<path d="M291.185 5.37988V168.445" stroke="#CCCCCC" stroke-dasharray="4 2"/>
<path d="M334.639 5.37988V168.445" stroke="#CCCCCC" stroke-dasharray="4 2"/>
<path d="M378.093 5.37988V168.445" stroke="#CCCCCC" stroke-dasharray="4 2"/>
<path d="M421.548 5.37988V168.445" stroke="#CCCCCC" stroke-dasharray="4 2"/>
<path d="M465.003 5.37988V168.445" stroke="#CCCCCC" stroke-dasharray="4 2"/>
<path d="M508.457 5.37988V168.445" stroke="#CCCCCC" stroke-dasharray="4 2"/>
<path d="M551.911 5.37988V168.445" stroke="#CCCCCC" stroke-dasharray="4 2"/>
<path d="M595.366 5.37988V168.445" stroke="#CCCCCC" stroke-dasharray="4 2"/>
<path d="M638.82 5.37988V168.445" stroke="#CCCCCC" stroke-dasharray="4 2"/>
<path d="M16.8417 167.292V168.593C16.8417 169.292 16.7792 169.882 16.6542 170.362C16.5292 170.843 16.3495 171.229 16.1152 171.522C15.8808 171.815 15.5976 172.028 15.2656 172.161C14.9374 172.29 14.5663 172.354 14.1523 172.354C13.8241 172.354 13.5214 172.313 13.2441 172.231C12.9667 172.149 12.7167 172.019 12.4941 171.839C12.2753 171.655 12.0878 171.417 11.9316 171.124C11.7753 170.831 11.6562 170.476 11.5741 170.058C11.4921 169.64 11.4511 169.151 11.4511 168.593V167.292C11.4511 166.593 11.5136 166.007 11.6386 165.534C11.7675 165.062 11.9491 164.683 12.1835 164.397C12.4179 164.108 12.6991 163.901 13.0273 163.776C13.3593 163.651 13.7304 163.589 14.1406 163.589C14.4726 163.589 14.7773 163.63 15.0546 163.712C15.3359 163.79 15.5859 163.917 15.8046 164.093C16.0234 164.265 16.2089 164.495 16.3613 164.784C16.5175 165.069 16.6366 165.419 16.7187 165.833C16.8007 166.247 16.8417 166.733 16.8417 167.292ZM15.7519 168.769V167.11C15.7519 166.728 15.7284 166.392 15.6816 166.103C15.6386 165.81 15.5741 165.56 15.4882 165.353C15.4023 165.146 15.2929 164.978 15.1601 164.849C15.0312 164.72 14.8808 164.626 14.7089 164.567C14.5409 164.505 14.3515 164.474 14.1406 164.474C13.8827 164.474 13.6542 164.522 13.455 164.62C13.2558 164.714 13.0878 164.864 12.9511 165.071C12.8183 165.278 12.7167 165.55 12.6464 165.886C12.5761 166.222 12.5409 166.63 12.5409 167.11V168.769C12.5409 169.151 12.5624 169.489 12.6054 169.782C12.6523 170.075 12.7206 170.329 12.8105 170.544C12.9003 170.755 13.0097 170.929 13.1386 171.065C13.2675 171.202 13.4159 171.304 13.5839 171.37C13.7558 171.433 13.9452 171.464 14.1523 171.464C14.4179 171.464 14.6503 171.413 14.8495 171.312C15.0488 171.21 15.2148 171.052 15.3476 170.837C15.4843 170.618 15.5859 170.339 15.6523 169.999C15.7187 169.655 15.7519 169.245 15.7519 168.769Z" fill="#333333"/>
<path d="M12.8573 127.617L11.9902 127.395L12.4179 123.146H16.7948V124.148H13.3378L13.08 126.469C13.2363 126.379 13.4335 126.295 13.6718 126.217C13.914 126.139 14.1913 126.1 14.5038 126.1C14.8984 126.1 15.2519 126.168 15.5644 126.305C15.8769 126.438 16.1425 126.629 16.3613 126.879C16.5839 127.129 16.7538 127.43 16.871 127.781C16.9882 128.133 17.0468 128.525 17.0468 128.959C17.0468 129.369 16.9902 129.746 16.8769 130.09C16.7675 130.434 16.6015 130.734 16.3788 130.992C16.1562 131.246 15.8749 131.443 15.5351 131.584C15.1991 131.725 14.8027 131.795 14.3456 131.795C14.0019 131.795 13.6757 131.748 13.3671 131.654C13.0624 131.557 12.789 131.41 12.5468 131.215C12.3085 131.016 12.1132 130.77 11.9609 130.477C11.8124 130.18 11.7187 129.832 11.6796 129.434H12.7109C12.7577 129.754 12.8515 130.023 12.9921 130.242C13.1327 130.461 13.3163 130.627 13.5429 130.74C13.7734 130.85 14.0409 130.904 14.3456 130.904C14.6034 130.904 14.832 130.859 15.0312 130.77C15.2304 130.68 15.3984 130.551 15.5351 130.383C15.6718 130.215 15.7753 130.012 15.8456 129.773C15.9198 129.535 15.957 129.268 15.957 128.971C15.957 128.701 15.9198 128.451 15.8456 128.221C15.7714 127.99 15.6601 127.789 15.5116 127.617C15.3671 127.445 15.1894 127.312 14.9784 127.219C14.7675 127.121 14.5253 127.072 14.2519 127.072C13.8886 127.072 13.6132 127.121 13.4257 127.219C13.2421 127.316 13.0527 127.449 12.8573 127.617Z" fill="#333333"/>
<path d="M8.29819 82.54V91.1182H7.21421V83.8936L5.02866 84.6904V83.7119L8.12827 82.54H8.29819ZM16.8412 86.1729V87.4736C16.8412 88.1729 16.7787 88.7627 16.6537 89.2432C16.5287 89.7236 16.349 90.1104 16.1146 90.4033C15.8802 90.6963 15.597 90.9092 15.265 91.042C14.9369 91.1709 14.5658 91.2354 14.1517 91.2354C13.8236 91.2354 13.5208 91.1943 13.2435 91.1123C12.9662 91.0303 12.7162 90.8994 12.4935 90.7197C12.2748 90.5361 12.0873 90.2979 11.931 90.0049C11.7748 89.7119 11.6556 89.3564 11.5736 88.9385C11.4916 88.5205 11.4505 88.0322 11.4505 87.4736V86.1729C11.4505 85.4736 11.513 84.8877 11.638 84.415C11.7669 83.9424 11.9486 83.5635 12.183 83.2783C12.4173 82.9893 12.6986 82.7822 13.0267 82.6572C13.3587 82.5322 13.7298 82.4697 14.14 82.4697C14.472 82.4697 14.7767 82.5107 15.0541 82.5928C15.3353 82.6709 15.5853 82.7979 15.8041 82.9736C16.0228 83.1455 16.2083 83.376 16.3607 83.665C16.5169 83.9502 16.6361 84.2998 16.7181 84.7139C16.8001 85.1279 16.8412 85.6143 16.8412 86.1729ZM15.7513 87.6494V85.9912C15.7513 85.6084 15.7279 85.2725 15.681 84.9834C15.638 84.6904 15.5736 84.4404 15.4876 84.2334C15.4017 84.0264 15.2923 83.8584 15.1595 83.7295C15.0306 83.6006 14.8802 83.5068 14.7083 83.4482C14.5404 83.3857 14.3509 83.3545 14.14 83.3545C13.8822 83.3545 13.6537 83.4033 13.4544 83.501C13.2552 83.5947 13.0873 83.7451 12.9505 83.9521C12.8177 84.1592 12.7162 84.4307 12.6458 84.7666C12.5755 85.1025 12.5404 85.5107 12.5404 85.9912V87.6494C12.5404 88.0322 12.5619 88.3701 12.6048 88.6631C12.6517 88.9561 12.7201 89.21 12.8099 89.4248C12.8998 89.6357 13.0091 89.8096 13.138 89.9463C13.2669 90.083 13.4154 90.1846 13.5833 90.251C13.7552 90.3135 13.9447 90.3447 14.1517 90.3447C14.4173 90.3447 14.6498 90.2939 14.849 90.1924C15.0482 90.0908 15.2142 89.9326 15.347 89.7178C15.4837 89.499 15.5853 89.2197 15.6517 88.8799C15.7181 88.5361 15.7513 88.126 15.7513 87.6494Z" fill="#333333"/>
<path d="M8.29819 41.9814V50.5596H7.21421V43.335L5.02866 44.1318V43.1533L8.12827 41.9814H8.29819ZM12.8568 46.499L11.9896 46.2764L12.4173 42.0283H16.7943V43.0303H13.3373L13.0794 45.3506C13.2357 45.2607 13.433 45.1768 13.6712 45.0986C13.9134 45.0205 14.1908 44.9814 14.5033 44.9814C14.8978 44.9814 15.2513 45.0498 15.5638 45.1865C15.8763 45.3193 16.1419 45.5107 16.3607 45.7607C16.5833 46.0107 16.7533 46.3115 16.8705 46.6631C16.9876 47.0146 17.0462 47.4072 17.0462 47.8408C17.0462 48.251 16.9896 48.6279 16.8763 48.9717C16.7669 49.3154 16.6009 49.6162 16.3783 49.874C16.1556 50.1279 15.8744 50.3252 15.5345 50.4658C15.1986 50.6064 14.8021 50.6768 14.3451 50.6768C14.0013 50.6768 13.6751 50.6299 13.3666 50.5361C13.0619 50.4385 12.7884 50.292 12.5462 50.0967C12.308 49.8975 12.1126 49.6514 11.9603 49.3584C11.8119 49.0615 11.7181 48.7139 11.6791 48.3154H12.7103C12.7572 48.6357 12.8509 48.9053 12.9916 49.124C13.1322 49.3428 13.3158 49.5088 13.5423 49.6221C13.7728 49.7314 14.0404 49.7861 14.3451 49.7861C14.6029 49.7861 14.8314 49.7412 15.0306 49.6514C15.2298 49.5615 15.3978 49.4326 15.5345 49.2646C15.6712 49.0967 15.7748 48.8936 15.8451 48.6553C15.9193 48.417 15.9564 48.1494 15.9564 47.8525C15.9564 47.583 15.9193 47.333 15.8451 47.1025C15.7708 46.8721 15.6595 46.6709 15.5111 46.499C15.3666 46.3271 15.1888 46.1943 14.9779 46.1006C14.7669 46.0029 14.5248 45.9541 14.2513 45.9541C13.888 45.9541 13.6126 46.0029 13.4251 46.1006C13.2416 46.1982 13.0521 46.3311 12.8568 46.499Z" fill="#333333"/>
<path d="M10.3255 9.10938V10H4.74155V9.2207L7.53647 6.10938C7.88022 5.72656 8.14585 5.40234 8.33335 5.13672C8.52475 4.86719 8.65757 4.62695 8.73178 4.41602C8.80991 4.20117 8.84897 3.98242 8.84897 3.75977C8.84897 3.47852 8.79038 3.22461 8.67319 2.99805C8.55991 2.76758 8.39194 2.58398 8.16928 2.44727C7.94663 2.31055 7.6771 2.24219 7.36069 2.24219C6.98178 2.24219 6.66538 2.31641 6.41147 2.46484C6.16147 2.60938 5.97397 2.8125 5.84897 3.07422C5.72397 3.33594 5.66147 3.63672 5.66147 3.97656H4.57749C4.57749 3.49609 4.68296 3.05664 4.89389 2.6582C5.10483 2.25977 5.41733 1.94336 5.83139 1.70898C6.24546 1.4707 6.75522 1.35156 7.36069 1.35156C7.89975 1.35156 8.36069 1.44727 8.7435 1.63867C9.12632 1.82617 9.41928 2.0918 9.62241 2.43555C9.82944 2.77539 9.93296 3.17383 9.93296 3.63086C9.93296 3.88086 9.88999 4.13477 9.80405 4.39258C9.72202 4.64648 9.60678 4.90039 9.45835 5.1543C9.31382 5.4082 9.14389 5.6582 8.94858 5.9043C8.75718 6.15039 8.5521 6.39258 8.33335 6.63086L6.04819 9.10938H10.3255ZM16.8412 5.05469V6.35547C16.8412 7.05469 16.7787 7.64453 16.6537 8.125C16.5287 8.60547 16.349 8.99219 16.1146 9.28516C15.8802 9.57812 15.597 9.79102 15.265 9.92383C14.9369 10.0527 14.5658 10.1172 14.1517 10.1172C13.8236 10.1172 13.5208 10.0762 13.2435 9.99414C12.9662 9.91211 12.7162 9.78125 12.4935 9.60156C12.2748 9.41797 12.0873 9.17969 11.931 8.88672C11.7748 8.59375 11.6556 8.23828 11.5736 7.82031C11.4916 7.40234 11.4505 6.91406 11.4505 6.35547V5.05469C11.4505 4.35547 11.513 3.76953 11.638 3.29688C11.7669 2.82422 11.9486 2.44531 12.183 2.16016C12.4173 1.87109 12.6986 1.66406 13.0267 1.53906C13.3587 1.41406 13.7298 1.35156 14.14 1.35156C14.472 1.35156 14.7767 1.39258 15.0541 1.47461C15.3353 1.55273 15.5853 1.67969 15.8041 1.85547C16.0228 2.02734 16.2083 2.25781 16.3607 2.54688C16.5169 2.83203 16.6361 3.18164 16.7181 3.5957C16.8001 4.00977 16.8412 4.49609 16.8412 5.05469ZM15.7513 6.53125V4.87305C15.7513 4.49023 15.7279 4.1543 15.681 3.86523C15.638 3.57227 15.5736 3.32227 15.4876 3.11523C15.4017 2.9082 15.2923 2.74023 15.1595 2.61133C15.0306 2.48242 14.8802 2.38867 14.7083 2.33008C14.5404 2.26758 14.3509 2.23633 14.14 2.23633C13.8822 2.23633 13.6537 2.28516 13.4544 2.38281C13.2552 2.47656 13.0873 2.62695 12.9505 2.83398C12.8177 3.04102 12.7162 3.3125 12.6458 3.64844C12.5755 3.98437 12.5404 4.39258 12.5404 4.87305V6.53125C12.5404 6.91406 12.5619 7.25195 12.6048 7.54492C12.6517 7.83789 12.7201 8.0918 12.8099 8.30664C12.8998 8.51758 13.0091 8.69141 13.138 8.82812C13.2669 8.96484 13.4154 9.06641 13.5833 9.13281C13.7552 9.19531 13.9447 9.22656 14.1517 9.22656C14.4173 9.22656 14.6498 9.17578 14.849 9.07422C15.0482 8.97266 15.2142 8.81445 15.347 8.59961C15.4837 8.38086 15.5853 8.10156 15.6517 7.76172C15.7181 7.41797 15.7513 7.00781 15.7513 6.53125Z" fill="#333333"/>
<path d="M30.738 173.834V182.412H29.654V175.188L27.4685 175.984V175.006L30.5681 173.834H30.738Z" fill="#333333"/>
<path d="M76.3073 181.521V182.412H70.7234V181.633L73.5183 178.521C73.862 178.139 74.1276 177.814 74.3151 177.549C74.5066 177.279 74.6394 177.039 74.7136 176.828C74.7917 176.613 74.8308 176.395 74.8308 176.172C74.8308 175.891 74.7722 175.637 74.655 175.41C74.5417 175.18 74.3737 174.996 74.1511 174.859C73.9284 174.723 73.6589 174.654 73.3425 174.654C72.9636 174.654 72.6472 174.729 72.3933 174.877C72.1433 175.021 71.9558 175.225 71.8308 175.486C71.7058 175.748 71.6433 176.049 71.6433 176.389H70.5593C70.5593 175.908 70.6648 175.469 70.8757 175.07C71.0866 174.672 71.3991 174.355 71.8132 174.121C72.2273 173.883 72.737 173.764 73.3425 173.764C73.8816 173.764 74.3425 173.859 74.7253 174.051C75.1081 174.238 75.4011 174.504 75.6042 174.848C75.8112 175.188 75.9148 175.586 75.9148 176.043C75.9148 176.293 75.8718 176.547 75.7859 176.805C75.7038 177.059 75.5886 177.312 75.4401 177.566C75.2956 177.82 75.1257 178.07 74.9304 178.316C74.739 178.562 74.5339 178.805 74.3151 179.043L72.03 181.521H76.3073Z" fill="#333333"/>
<path d="M115.843 177.613H116.616C116.995 177.613 117.308 177.551 117.554 177.426C117.804 177.297 117.989 177.123 118.111 176.904C118.236 176.682 118.298 176.432 118.298 176.154C118.298 175.826 118.243 175.551 118.134 175.328C118.025 175.105 117.861 174.938 117.642 174.824C117.423 174.711 117.146 174.654 116.81 174.654C116.505 174.654 116.236 174.715 116.001 174.836C115.771 174.953 115.589 175.121 115.456 175.34C115.327 175.559 115.263 175.816 115.263 176.113H114.179C114.179 175.68 114.288 175.285 114.507 174.93C114.726 174.574 115.032 174.291 115.427 174.08C115.825 173.869 116.286 173.764 116.81 173.764C117.325 173.764 117.777 173.855 118.163 174.039C118.55 174.219 118.851 174.488 119.066 174.848C119.28 175.203 119.388 175.646 119.388 176.178C119.388 176.393 119.337 176.623 119.236 176.869C119.138 177.111 118.984 177.338 118.773 177.549C118.566 177.76 118.296 177.934 117.964 178.07C117.632 178.203 117.234 178.27 116.769 178.27H115.843V177.613ZM115.843 178.504V177.854H116.769C117.312 177.854 117.761 177.918 118.116 178.047C118.472 178.176 118.751 178.348 118.954 178.562C119.161 178.777 119.306 179.014 119.388 179.271C119.474 179.525 119.517 179.779 119.517 180.033C119.517 180.432 119.448 180.785 119.312 181.094C119.179 181.402 118.989 181.664 118.743 181.879C118.501 182.094 118.216 182.256 117.888 182.365C117.56 182.475 117.202 182.529 116.816 182.529C116.445 182.529 116.095 182.477 115.767 182.371C115.443 182.266 115.155 182.113 114.905 181.914C114.655 181.711 114.46 181.463 114.32 181.17C114.179 180.873 114.109 180.535 114.109 180.156H115.193C115.193 180.453 115.257 180.713 115.386 180.936C115.519 181.158 115.706 181.332 115.948 181.457C116.195 181.578 116.484 181.639 116.816 181.639C117.148 181.639 117.433 181.582 117.671 181.469C117.913 181.352 118.099 181.176 118.228 180.941C118.361 180.707 118.427 180.412 118.427 180.057C118.427 179.701 118.353 179.41 118.204 179.184C118.056 178.953 117.845 178.783 117.571 178.674C117.302 178.561 116.984 178.504 116.616 178.504H115.843Z" fill="#333333"/>
<path d="M163.569 179.541V180.432H157.405V179.793L161.225 173.881H162.11L161.16 175.592L158.635 179.541H163.569ZM162.379 173.881V182.412H161.295V173.881H162.379Z" fill="#333333"/>
<path d="M202.717 178.352L201.849 178.129L202.277 173.881H206.654V174.883H203.197L202.939 177.203C203.095 177.113 203.293 177.029 203.531 176.951C203.773 176.873 204.05 176.834 204.363 176.834C204.758 176.834 205.111 176.902 205.424 177.039C205.736 177.172 206.002 177.363 206.22 177.613C206.443 177.863 206.613 178.164 206.73 178.516C206.847 178.867 206.906 179.26 206.906 179.693C206.906 180.104 206.849 180.48 206.736 180.824C206.627 181.168 206.461 181.469 206.238 181.727C206.015 181.98 205.734 182.178 205.394 182.318C205.058 182.459 204.662 182.529 204.205 182.529C203.861 182.529 203.535 182.482 203.226 182.389C202.922 182.291 202.648 182.145 202.406 181.949C202.168 181.75 201.972 181.504 201.82 181.211C201.672 180.914 201.578 180.566 201.539 180.168H202.57C202.617 180.488 202.711 180.758 202.851 180.977C202.992 181.195 203.175 181.361 203.402 181.475C203.633 181.584 203.9 181.639 204.205 181.639C204.463 181.639 204.691 181.594 204.89 181.504C205.09 181.414 205.258 181.285 205.394 181.117C205.531 180.949 205.634 180.746 205.705 180.508C205.779 180.27 205.816 180.002 205.816 179.705C205.816 179.436 205.779 179.186 205.705 178.955C205.631 178.725 205.519 178.523 205.371 178.352C205.226 178.18 205.049 178.047 204.838 177.953C204.627 177.855 204.384 177.807 204.111 177.807C203.748 177.807 203.472 177.855 203.285 177.953C203.101 178.051 202.912 178.184 202.717 178.352Z" fill="#333333"/>
<path d="M249.048 173.869H249.142V174.789H249.048C248.474 174.789 247.993 174.883 247.607 175.07C247.22 175.254 246.913 175.502 246.687 175.814C246.46 176.123 246.296 176.471 246.195 176.857C246.097 177.244 246.048 177.637 246.048 178.035V179.289C246.048 179.668 246.093 180.004 246.183 180.297C246.273 180.586 246.396 180.83 246.552 181.029C246.708 181.229 246.884 181.379 247.079 181.48C247.279 181.582 247.486 181.633 247.7 181.633C247.95 181.633 248.173 181.586 248.368 181.492C248.564 181.395 248.728 181.26 248.861 181.088C248.997 180.912 249.101 180.705 249.171 180.467C249.241 180.229 249.277 179.967 249.277 179.682C249.277 179.428 249.245 179.184 249.183 178.949C249.12 178.711 249.025 178.5 248.896 178.316C248.767 178.129 248.605 177.982 248.409 177.877C248.218 177.768 247.989 177.713 247.724 177.713C247.423 177.713 247.142 177.787 246.88 177.936C246.622 178.08 246.409 178.271 246.241 178.51C246.077 178.744 245.984 179 245.96 179.277L245.386 179.271C245.441 178.834 245.542 178.461 245.691 178.152C245.843 177.84 246.03 177.586 246.253 177.391C246.48 177.191 246.732 177.047 247.009 176.957C247.29 176.863 247.587 176.816 247.9 176.816C248.325 176.816 248.693 176.896 249.001 177.057C249.31 177.217 249.564 177.432 249.763 177.701C249.962 177.967 250.109 178.268 250.202 178.604C250.3 178.936 250.349 179.277 250.349 179.629C250.349 180.031 250.292 180.408 250.179 180.76C250.066 181.111 249.896 181.42 249.669 181.686C249.446 181.951 249.171 182.158 248.843 182.307C248.515 182.455 248.134 182.529 247.7 182.529C247.239 182.529 246.837 182.436 246.493 182.248C246.15 182.057 245.864 181.803 245.638 181.486C245.411 181.17 245.241 180.818 245.128 180.432C245.015 180.045 244.958 179.652 244.958 179.254V178.744C244.958 178.143 245.019 177.553 245.14 176.975C245.261 176.396 245.47 175.873 245.767 175.404C246.068 174.936 246.484 174.562 247.015 174.285C247.546 174.008 248.224 173.869 249.048 173.869Z" fill="#333333"/>
<path d="M293.944 173.881V174.49L290.411 182.412H289.268L292.796 174.771H288.178V173.881H293.944Z" fill="#333333"/>
<path d="M337.352 180.104C337.352 180.623 337.231 181.064 336.988 181.428C336.75 181.787 336.426 182.061 336.016 182.248C335.61 182.436 335.151 182.529 334.639 182.529C334.127 182.529 333.666 182.436 333.256 182.248C332.846 182.061 332.522 181.787 332.283 181.428C332.045 181.064 331.926 180.623 331.926 180.104C331.926 179.764 331.99 179.453 332.119 179.172C332.252 178.887 332.438 178.639 332.676 178.428C332.918 178.217 333.203 178.055 333.531 177.941C333.863 177.824 334.229 177.766 334.627 177.766C335.151 177.766 335.617 177.867 336.028 178.07C336.438 178.27 336.76 178.545 336.994 178.896C337.233 179.248 337.352 179.65 337.352 180.104ZM336.262 180.08C336.262 179.764 336.194 179.484 336.057 179.242C335.92 178.996 335.729 178.805 335.483 178.668C335.237 178.531 334.951 178.463 334.627 178.463C334.295 178.463 334.008 178.531 333.766 178.668C333.528 178.805 333.342 178.996 333.209 179.242C333.076 179.484 333.01 179.764 333.01 180.08C333.01 180.408 333.074 180.689 333.203 180.924C333.336 181.154 333.524 181.332 333.766 181.457C334.012 181.578 334.303 181.639 334.639 181.639C334.975 181.639 335.264 181.578 335.506 181.457C335.748 181.332 335.934 181.154 336.063 180.924C336.196 180.689 336.262 180.408 336.262 180.08ZM337.153 176.102C337.153 176.516 337.043 176.889 336.824 177.221C336.606 177.553 336.307 177.814 335.928 178.006C335.549 178.197 335.119 178.293 334.639 178.293C334.151 178.293 333.715 178.197 333.332 178.006C332.953 177.814 332.656 177.553 332.442 177.221C332.227 176.889 332.119 176.516 332.119 176.102C332.119 175.605 332.227 175.184 332.442 174.836C332.66 174.488 332.959 174.223 333.338 174.039C333.717 173.855 334.149 173.764 334.633 173.764C335.121 173.764 335.555 173.855 335.934 174.039C336.313 174.223 336.61 174.488 336.824 174.836C337.043 175.184 337.153 175.605 337.153 176.102ZM336.069 176.119C336.069 175.834 336.008 175.582 335.887 175.363C335.766 175.145 335.598 174.973 335.383 174.848C335.168 174.719 334.918 174.654 334.633 174.654C334.348 174.654 334.098 174.715 333.883 174.836C333.672 174.953 333.506 175.121 333.385 175.34C333.268 175.559 333.209 175.818 333.209 176.119C333.209 176.412 333.268 176.668 333.385 176.887C333.506 177.105 333.674 177.275 333.889 177.396C334.104 177.518 334.354 177.578 334.639 177.578C334.924 177.578 335.172 177.518 335.383 177.396C335.598 177.275 335.766 177.105 335.887 176.887C336.008 176.668 336.069 176.412 336.069 176.119Z" fill="#333333"/>
<path d="M376.593 181.504H376.705C377.33 181.504 377.838 181.416 378.228 181.24C378.619 181.064 378.92 180.828 379.131 180.531C379.342 180.234 379.486 179.9 379.564 179.529C379.642 179.154 379.681 178.77 379.681 178.375V177.068C379.681 176.682 379.636 176.338 379.547 176.037C379.461 175.736 379.34 175.484 379.183 175.281C379.031 175.078 378.857 174.924 378.662 174.818C378.467 174.713 378.259 174.66 378.041 174.66C377.791 174.66 377.566 174.711 377.367 174.812C377.172 174.91 377.006 175.049 376.869 175.229C376.736 175.408 376.634 175.619 376.564 175.861C376.494 176.104 376.459 176.367 376.459 176.652C376.459 176.906 376.49 177.152 376.552 177.391C376.615 177.629 376.711 177.844 376.84 178.035C376.968 178.227 377.129 178.379 377.32 178.492C377.515 178.602 377.744 178.656 378.006 178.656C378.248 178.656 378.474 178.609 378.685 178.516C378.9 178.418 379.09 178.287 379.254 178.123C379.422 177.955 379.554 177.766 379.652 177.555C379.754 177.344 379.812 177.123 379.828 176.893H380.343C380.343 177.217 380.279 177.537 380.15 177.854C380.025 178.166 379.849 178.451 379.623 178.709C379.396 178.967 379.131 179.174 378.826 179.33C378.521 179.482 378.189 179.559 377.83 179.559C377.408 179.559 377.043 179.477 376.734 179.312C376.425 179.148 376.172 178.93 375.972 178.656C375.777 178.383 375.631 178.078 375.533 177.742C375.439 177.402 375.392 177.059 375.392 176.711C375.392 176.305 375.449 175.924 375.562 175.568C375.675 175.213 375.843 174.9 376.066 174.631C376.289 174.357 376.564 174.145 376.892 173.992C377.224 173.84 377.607 173.764 378.041 173.764C378.529 173.764 378.945 173.861 379.289 174.057C379.633 174.252 379.912 174.514 380.127 174.842C380.345 175.17 380.506 175.539 380.607 175.949C380.709 176.359 380.759 176.781 380.759 177.215V177.607C380.759 178.049 380.73 178.498 380.672 178.955C380.617 179.408 380.509 179.842 380.349 180.256C380.193 180.67 379.965 181.041 379.664 181.369C379.363 181.693 378.97 181.951 378.486 182.143C378.006 182.33 377.412 182.424 376.705 182.424H376.593V181.504Z" fill="#333333"/>
<path d="M419.246 173.834V182.412H418.162V175.188L415.976 175.984V175.006L419.076 173.834H419.246ZM427.788 177.467V178.768C427.788 179.467 427.726 180.057 427.601 180.537C427.476 181.018 427.296 181.404 427.062 181.697C426.828 181.99 426.544 182.203 426.212 182.336C425.884 182.465 425.513 182.529 425.099 182.529C424.771 182.529 424.468 182.488 424.191 182.406C423.913 182.324 423.663 182.193 423.441 182.014C423.222 181.83 423.035 181.592 422.878 181.299C422.722 181.006 422.603 180.65 422.521 180.232C422.439 179.814 422.398 179.326 422.398 178.768V177.467C422.398 176.768 422.46 176.182 422.585 175.709C422.714 175.236 422.896 174.857 423.13 174.572C423.365 174.283 423.646 174.076 423.974 173.951C424.306 173.826 424.677 173.764 425.087 173.764C425.419 173.764 425.724 173.805 426.001 173.887C426.283 173.965 426.533 174.092 426.751 174.268C426.97 174.439 427.156 174.67 427.308 174.959C427.464 175.244 427.583 175.594 427.665 176.008C427.747 176.422 427.788 176.908 427.788 177.467ZM426.699 178.943V177.285C426.699 176.902 426.675 176.566 426.628 176.277C426.585 175.984 426.521 175.734 426.435 175.527C426.349 175.32 426.24 175.152 426.107 175.023C425.978 174.895 425.828 174.801 425.656 174.742C425.488 174.68 425.298 174.648 425.087 174.648C424.83 174.648 424.601 174.697 424.402 174.795C424.203 174.889 424.035 175.039 423.898 175.246C423.765 175.453 423.663 175.725 423.593 176.061C423.523 176.396 423.488 176.805 423.488 177.285V178.943C423.488 179.326 423.509 179.664 423.552 179.957C423.599 180.25 423.667 180.504 423.757 180.719C423.847 180.93 423.956 181.104 424.085 181.24C424.214 181.377 424.363 181.479 424.531 181.545C424.703 181.607 424.892 181.639 425.099 181.639C425.365 181.639 425.597 181.588 425.796 181.486C425.996 181.385 426.162 181.227 426.294 181.012C426.431 180.793 426.533 180.514 426.599 180.174C426.665 179.83 426.699 179.42 426.699 178.943Z" fill="#333333"/>
<path d="M462.788 173.834V182.412H461.705V175.188L459.519 175.984V175.006L462.619 173.834H462.788ZM469.538 173.834V182.412H468.455V175.188L466.269 175.984V175.006L469.369 173.834H469.538Z" fill="#333333"/>
<path d="M506.33 173.834V182.412H505.246V175.188L503.06 175.984V175.006L506.16 173.834H506.33ZM515.107 181.521V182.412H509.523V181.633L512.318 178.521C512.662 178.139 512.928 177.814 513.115 177.549C513.307 177.279 513.439 177.039 513.514 176.828C513.592 176.613 513.631 176.395 513.631 176.172C513.631 175.891 513.572 175.637 513.455 175.41C513.342 175.18 513.174 174.996 512.951 174.859C512.728 174.723 512.459 174.654 512.143 174.654C511.764 174.654 511.447 174.729 511.193 174.877C510.943 175.021 510.756 175.225 510.631 175.486C510.506 175.748 510.443 176.049 510.443 176.389H509.359C509.359 175.908 509.465 175.469 509.676 175.07C509.887 174.672 510.199 174.355 510.613 174.121C511.027 173.883 511.537 173.764 512.143 173.764C512.682 173.764 513.143 173.859 513.525 174.051C513.908 174.238 514.201 174.504 514.404 174.848C514.611 175.188 514.715 175.586 514.715 176.043C514.715 176.293 514.672 176.547 514.586 176.805C514.504 177.059 514.389 177.312 514.24 177.566C514.096 177.82 513.926 178.07 513.73 178.316C513.539 178.562 513.334 178.805 513.115 179.043L510.83 181.521H515.107Z" fill="#333333"/>
<path d="M549.872 173.834V182.412H548.788V175.188L546.603 175.984V175.006L549.703 173.834H549.872ZM554.642 177.613H555.415C555.794 177.613 556.107 177.551 556.353 177.426C556.603 177.297 556.788 177.123 556.91 176.904C557.035 176.682 557.097 176.432 557.097 176.154C557.097 175.826 557.042 175.551 556.933 175.328C556.824 175.105 556.66 174.938 556.441 174.824C556.222 174.711 555.945 174.654 555.609 174.654C555.304 174.654 555.035 174.715 554.8 174.836C554.57 174.953 554.388 175.121 554.255 175.34C554.126 175.559 554.062 175.816 554.062 176.113H552.978C552.978 175.68 553.087 175.285 553.306 174.93C553.525 174.574 553.831 174.291 554.226 174.08C554.624 173.869 555.085 173.764 555.609 173.764C556.124 173.764 556.576 173.855 556.962 174.039C557.349 174.219 557.65 174.488 557.865 174.848C558.08 175.203 558.187 175.646 558.187 176.178C558.187 176.393 558.136 176.623 558.035 176.869C557.937 177.111 557.783 177.338 557.572 177.549C557.365 177.76 557.095 177.934 556.763 178.07C556.431 178.203 556.033 178.27 555.568 178.27H554.642V177.613ZM554.642 178.504V177.854H555.568C556.111 177.854 556.56 177.918 556.915 178.047C557.271 178.176 557.55 178.348 557.753 178.562C557.96 178.777 558.105 179.014 558.187 179.271C558.273 179.525 558.316 179.779 558.316 180.033C558.316 180.432 558.247 180.785 558.111 181.094C557.978 181.402 557.788 181.664 557.542 181.879C557.3 182.094 557.015 182.256 556.687 182.365C556.359 182.475 556.001 182.529 555.615 182.529C555.244 182.529 554.894 182.477 554.566 182.371C554.242 182.266 553.955 182.113 553.705 181.914C553.455 181.711 553.259 181.463 553.119 181.17C552.978 180.873 552.908 180.535 552.908 180.156H553.992C553.992 180.453 554.056 180.713 554.185 180.936C554.318 181.158 554.505 181.332 554.747 181.457C554.994 181.578 555.283 181.639 555.615 181.639C555.947 181.639 556.232 181.582 556.47 181.469C556.712 181.352 556.898 181.176 557.027 180.941C557.16 180.707 557.226 180.412 557.226 180.057C557.226 179.701 557.152 179.41 557.003 179.184C556.855 178.953 556.644 178.783 556.371 178.674C556.101 178.561 555.783 178.504 555.415 178.504H554.642Z" fill="#333333"/>
<path d="M593.415 173.834V182.412H592.331V175.188L590.146 175.984V175.006L593.246 173.834H593.415ZM602.369 179.541V180.432H596.205V179.793L600.025 173.881H600.91L599.96 175.592L597.435 179.541H602.369ZM601.179 173.881V182.412H600.095V173.881H601.179Z" fill="#333333"/>
<path d="M636.958 173.834V182.412H635.874V175.188L633.688 175.984V175.006L636.788 173.834H636.958ZM641.517 178.352L640.649 178.129L641.077 173.881H645.454V174.883H641.997L641.739 177.203C641.895 177.113 642.093 177.029 642.331 176.951C642.573 176.873 642.851 176.834 643.163 176.834C643.558 176.834 643.911 176.902 644.224 177.039C644.536 177.172 644.802 177.363 645.02 177.613C645.243 177.863 645.413 178.164 645.53 178.516C645.647 178.867 645.706 179.26 645.706 179.693C645.706 180.104 645.649 180.48 645.536 180.824C645.427 181.168 645.261 181.469 645.038 181.727C644.815 181.98 644.534 182.178 644.194 182.318C643.858 182.459 643.462 182.529 643.005 182.529C642.661 182.529 642.335 182.482 642.026 182.389C641.722 182.291 641.448 182.145 641.206 181.949C640.968 181.75 640.772 181.504 640.62 181.211C640.472 180.914 640.378 180.566 640.339 180.168H641.37C641.417 180.488 641.511 180.758 641.651 180.977C641.792 181.195 641.976 181.361 642.202 181.475C642.433 181.584 642.7 181.639 643.005 181.639C643.263 181.639 643.491 181.594 643.69 181.504C643.89 181.414 644.058 181.285 644.194 181.117C644.331 180.949 644.434 180.746 644.505 180.508C644.579 180.27 644.616 180.002 644.616 179.705C644.616 179.436 644.579 179.186 644.505 178.955C644.431 178.725 644.319 178.523 644.171 178.352C644.026 178.18 643.849 178.047 643.638 177.953C643.427 177.855 643.184 177.807 642.911 177.807C642.548 177.807 642.272 177.855 642.085 177.953C641.901 178.051 641.712 178.184 641.517 178.352Z" fill="#333333"/>
<path opacity="0.2" fill-rule="evenodd" clip-rule="evenodd" d="M29.8418 160.292L42.2825 54.2994L54.7232 46.1462L67.1639 168.445L79.6046 13.5332L92.0453 111.372L104.486 103.219L116.927 86.9124L129.367 46.1462L141.808 78.7592L154.249 103.219L166.69 46.1462L179.13 29.8397L191.571 70.6059L204.012 119.525L216.452 152.138L228.893 78.7592L241.334 13.5332L253.775 119.525L266.215 29.8397L278.656 78.7592L291.097 13.5332L303.537 135.832L315.978 95.0656L328.419 135.832L340.859 103.219L353.3 54.2994H365.741H378.182L390.622 143.985L403.063 135.832H415.504L427.944 119.525L440.385 127.679L452.826 86.9124L465.267 168.445L477.707 54.2994L490.148 152.138L502.589 111.372L515.029 70.6059L527.47 13.5332H539.911L552.352 54.2994L564.792 119.525L577.233 21.6864L589.674 127.679L602.114 86.9124L614.555 29.8397L626.996 86.9124L639.436 168.445H29.8418V160.292Z" fill="#0E9CFF"/>
<path d="M29.8418 160.292L42.2825 54.2994L54.7232 46.1462L67.1639 168.445L79.6046 13.5332L92.0453 111.372L104.486 103.219L116.927 86.9124L129.367 46.1462L141.808 78.7592L154.249 103.219L166.69 46.1462L179.13 29.8397L191.571 70.6059L204.012 119.525L216.452 152.138L228.893 78.7592L241.334 13.5332L253.775 119.525L266.215 29.8397L278.656 78.7592L291.097 13.5332L303.537 135.832L315.978 95.0656L328.419 135.832L340.859 103.219L353.3 54.2994H365.741H378.182L390.622 143.985L403.063 135.832H415.504L427.944 119.525L440.385 127.679L452.826 86.9124L465.267 168.445L477.707 54.2994L490.148 152.138L502.589 111.372L515.029 70.6059L527.47 13.5332H539.911L552.351 54.2994L564.792 119.525L577.233 21.6864L589.674 127.679L602.114 86.9124L614.555 29.8397L626.996 86.9124L639.436 168.445" stroke="#0E9CFF" stroke-width="2" stroke-linejoin="round"/>
<path d="M29.8415 163.361C30.8632 163.361 31.833 163.085 32.5763 162.585C33.3133 162.09 33.9202 161.298 33.9202 160.292C33.9202 159.286 33.3133 158.494 32.5763 157.999C31.833 157.499 30.8632 157.223 29.8415 157.223C28.8197 157.223 27.8499 157.499 27.1066 157.999C26.3696 158.494 25.7627 159.286 25.7627 160.292C25.7627 161.298 26.3696 162.09 27.1066 162.585C27.8499 163.085 28.8197 163.361 29.8415 163.361Z" fill="white" stroke="#0E9CFF" stroke-width="2"/>
<path d="M42.2824 57.3692C43.3041 57.3692 44.274 57.0926 45.0172 56.593C45.7542 56.0977 46.3611 55.3058 46.3611 54.2998C46.3611 53.2938 45.7542 52.502 45.0172 52.0066C44.274 51.507 43.3041 51.2305 42.2824 51.2305C41.2607 51.2305 40.2908 51.507 39.5475 52.0066C38.8105 52.502 38.2036 53.2938 38.2036 54.2998C38.2036 55.3058 38.8105 56.0977 39.5475 56.593C40.2908 57.0926 41.2607 57.3692 42.2824 57.3692Z" fill="white" stroke="#0E9CFF" stroke-width="2"/>
<path d="M54.7233 49.2159C55.745 49.2159 56.7149 48.9393 57.4581 48.4397C58.1951 47.9443 58.8021 47.1525 58.8021 46.1465C58.8021 45.1405 58.1951 44.3487 57.4581 43.8533C56.7149 43.3537 55.745 43.0771 54.7233 43.0771C53.7016 43.0771 52.7317 43.3537 51.9884 43.8533C51.2514 44.3487 50.6445 45.1405 50.6445 46.1465C50.6445 47.1525 51.2514 47.9443 51.9884 48.4397C52.7317 48.9393 53.7016 49.2159 54.7233 49.2159Z" fill="white" stroke="#0E9CFF" stroke-width="2"/>
<path d="M67.1642 171.514C68.1859 171.514 69.1558 171.237 69.8991 170.738C70.6361 170.242 71.243 169.45 71.243 168.444C71.243 167.438 70.6361 166.647 69.8991 166.151C69.1558 165.652 68.1859 165.375 67.1642 165.375C66.1425 165.375 65.1726 165.652 64.4294 166.151C63.6924 166.647 63.0854 167.438 63.0854 168.444C63.0854 169.45 63.6924 170.242 64.4294 170.738C65.1726 171.237 66.1425 171.514 67.1642 171.514Z" fill="white" stroke="#0E9CFF" stroke-width="2"/>
<path d="M79.6046 16.6026C80.6264 16.6026 81.5962 16.326 82.3395 15.8264C83.0765 15.3311 83.6834 14.5392 83.6834 13.5332C83.6834 12.5272 83.0765 11.7354 82.3395 11.24C81.5962 10.7404 80.6264 10.4639 79.6046 10.4639C78.5829 10.4639 77.613 10.7404 76.8698 11.24C76.1328 11.7354 75.5259 12.5272 75.5259 13.5332C75.5259 14.5392 76.1328 15.3311 76.8698 15.8264C77.613 16.326 78.5829 16.6026 79.6046 16.6026Z" fill="white" stroke="#0E9CFF" stroke-width="2"/>
<path d="M92.0451 114.441C93.0668 114.441 94.0367 114.165 94.7799 113.665C95.5169 113.17 96.1238 112.378 96.1238 111.372C96.1238 110.366 95.5169 109.574 94.7799 109.079C94.0367 108.579 93.0668 108.303 92.0451 108.303C91.0234 108.303 90.0535 108.579 89.3102 109.079C88.5732 109.574 87.9663 110.366 87.9663 111.372C87.9663 112.378 88.5732 113.17 89.3102 113.665C90.0535 114.165 91.0234 114.441 92.0451 114.441Z" fill="white" stroke="#0E9CFF" stroke-width="2"/>
<path d="M104.486 106.288C105.508 106.288 106.478 106.012 107.221 105.512C107.958 105.017 108.565 104.225 108.565 103.219C108.565 102.213 107.958 101.421 107.221 100.926C106.478 100.426 105.508 100.149 104.486 100.149C103.465 100.149 102.495 100.426 101.752 100.926C101.015 101.421 100.408 102.213 100.408 103.219C100.408 104.225 101.015 105.017 101.752 105.512C102.495 106.012 103.465 106.288 104.486 106.288Z" fill="white" stroke="#0E9CFF" stroke-width="2"/>
<path d="M116.927 89.9815C117.949 89.9815 118.918 89.7049 119.662 89.2053C120.399 88.71 121.006 87.9181 121.006 86.9121C121.006 85.9061 120.399 85.1143 119.662 84.6189C118.918 84.1193 117.949 83.8428 116.927 83.8428C115.905 83.8428 114.935 84.1193 114.192 84.6189C113.455 85.1143 112.848 85.9061 112.848 86.9121C112.848 87.9181 113.455 88.71 114.192 89.2053C114.935 89.7049 115.905 89.9815 116.927 89.9815Z" fill="white" stroke="#0E9CFF" stroke-width="2"/>
<path d="M129.367 49.2159C130.389 49.2159 131.359 48.9393 132.102 48.4397C132.839 47.9443 133.446 47.1525 133.446 46.1465C133.446 45.1405 132.839 44.3487 132.102 43.8533C131.359 43.3537 130.389 43.0771 129.367 43.0771C128.346 43.0771 127.376 43.3537 126.632 43.8533C125.895 44.3487 125.289 45.1405 125.289 46.1465C125.289 47.1525 125.895 47.9443 126.632 48.4397C127.376 48.9393 128.346 49.2159 129.367 49.2159Z" fill="white" stroke="#0E9CFF" stroke-width="2"/>
<path d="M141.808 81.8282C142.83 81.8282 143.8 81.5516 144.543 81.052C145.28 80.5566 145.887 79.7648 145.887 78.7588C145.887 77.7528 145.28 76.961 144.543 76.4656C143.8 75.966 142.83 75.6895 141.808 75.6895C140.787 75.6895 139.817 75.966 139.073 76.4656C138.336 76.961 137.729 77.7528 137.729 78.7588C137.729 79.7648 138.336 80.5566 139.073 81.052C139.817 81.5516 140.787 81.8282 141.808 81.8282Z" fill="white" stroke="#0E9CFF" stroke-width="2"/>
<path d="M154.249 106.288C155.271 106.288 156.241 106.012 156.984 105.512C157.721 105.017 158.328 104.225 158.328 103.219C158.328 102.213 157.721 101.421 156.984 100.926C156.241 100.426 155.271 100.149 154.249 100.149C153.227 100.149 152.258 100.426 151.514 100.926C150.777 101.421 150.17 102.213 150.17 103.219C150.17 104.225 150.777 105.017 151.514 105.512C152.258 106.012 153.227 106.288 154.249 106.288Z" fill="white" stroke="#0E9CFF" stroke-width="2"/>
<path d="M166.69 49.2159C167.712 49.2159 168.682 48.9393 169.425 48.4397C170.162 47.9443 170.769 47.1525 170.769 46.1465C170.769 45.1405 170.162 44.3487 169.425 43.8533C168.682 43.3537 167.712 43.0771 166.69 43.0771C165.668 43.0771 164.698 43.3537 163.955 43.8533C163.218 44.3487 162.611 45.1405 162.611 46.1465C162.611 47.1525 163.218 47.9443 163.955 48.4397C164.698 48.9393 165.668 49.2159 166.69 49.2159Z" fill="white" stroke="#0E9CFF" stroke-width="2"/>
<path d="M179.131 32.9092C180.152 32.9092 181.122 32.6326 181.865 32.1331C182.602 31.6377 183.209 30.8459 183.209 29.8399C183.209 28.8339 182.602 28.042 181.865 27.5467C181.122 27.0471 180.152 26.7705 179.131 26.7705C178.109 26.7705 177.139 27.0471 176.396 27.5467C175.659 28.042 175.052 28.8339 175.052 29.8399C175.052 30.8459 175.659 31.6377 176.396 32.1331C177.139 32.6326 178.109 32.9092 179.131 32.9092Z" fill="white" stroke="#0E9CFF" stroke-width="2"/>
<path d="M191.571 73.6758C192.593 73.6758 193.563 73.3992 194.306 72.8997C195.043 72.4043 195.65 71.6125 195.65 70.6065C195.65 69.6005 195.043 68.8086 194.306 68.3133C193.563 67.8137 192.593 67.5371 191.571 67.5371C190.549 67.5371 189.579 67.8137 188.836 68.3133C188.099 68.8086 187.492 69.6005 187.492 70.6065C187.492 71.6125 188.099 72.4043 188.836 72.8997C189.579 73.3992 190.549 73.6758 191.571 73.6758Z" fill="white" stroke="#0E9CFF" stroke-width="2"/>
<path d="M204.012 122.595C205.034 122.595 206.003 122.318 206.747 121.819C207.484 121.323 208.091 120.531 208.091 119.525C208.091 118.519 207.484 117.728 206.747 117.232C206.003 116.733 205.034 116.456 204.012 116.456C202.99 116.456 202.02 116.733 201.277 117.232C200.54 117.728 199.933 118.519 199.933 119.525C199.933 120.531 200.54 121.323 201.277 121.819C202.02 122.318 202.99 122.595 204.012 122.595Z" fill="white" stroke="#0E9CFF" stroke-width="2"/>
<path d="M216.452 155.208C217.474 155.208 218.444 154.931 219.187 154.432C219.924 153.937 220.531 153.145 220.531 152.139C220.531 151.133 219.924 150.341 219.187 149.845C218.444 149.346 217.474 149.069 216.452 149.069C215.431 149.069 214.461 149.346 213.717 149.845C212.98 150.341 212.374 151.133 212.374 152.139C212.374 153.145 212.98 153.937 213.717 154.432C214.461 154.931 215.431 155.208 216.452 155.208Z" fill="white" stroke="#0E9CFF" stroke-width="2"/>
<path d="M228.893 81.8282C229.915 81.8282 230.885 81.5516 231.628 81.052C232.365 80.5566 232.972 79.7648 232.972 78.7588C232.972 77.7528 232.365 76.961 231.628 76.4656C230.885 75.966 229.915 75.6895 228.893 75.6895C227.871 75.6895 226.902 75.966 226.158 76.4656C225.421 76.961 224.814 77.7528 224.814 78.7588C224.814 79.7648 225.421 80.5566 226.158 81.052C226.902 81.5516 227.871 81.8282 228.893 81.8282Z" fill="white" stroke="#0E9CFF" stroke-width="2"/>
<path d="M241.334 16.6026C242.355 16.6026 243.325 16.326 244.068 15.8264C244.805 15.3311 245.412 14.5392 245.412 13.5332C245.412 12.5272 244.805 11.7354 244.068 11.24C243.325 10.7404 242.355 10.4639 241.334 10.4639C240.312 10.4639 239.342 10.7404 238.599 11.24C237.862 11.7354 237.255 12.5272 237.255 13.5332C237.255 14.5392 237.862 15.3311 238.599 15.8264C239.342 16.326 240.312 16.6026 241.334 16.6026Z" fill="white" stroke="#0E9CFF" stroke-width="2"/>
<path d="M253.775 122.595C254.796 122.595 255.766 122.318 256.509 121.819C257.246 121.323 257.853 120.531 257.853 119.525C257.853 118.519 257.246 117.728 256.509 117.232C255.766 116.733 254.796 116.456 253.775 116.456C252.753 116.456 251.783 116.733 251.04 117.232C250.303 117.728 249.696 118.519 249.696 119.525C249.696 120.531 250.303 121.323 251.04 121.819C251.783 122.318 252.753 122.595 253.775 122.595Z" fill="white" stroke="#0E9CFF" stroke-width="2"/>
<path d="M266.215 32.9092C267.237 32.9092 268.207 32.6326 268.95 32.1331C269.687 31.6377 270.294 30.8459 270.294 29.8399C270.294 28.8339 269.687 28.042 268.95 27.5467C268.207 27.0471 267.237 26.7705 266.215 26.7705C265.193 26.7705 264.223 27.0471 263.48 27.5467C262.743 28.042 262.136 28.8339 262.136 29.8399C262.136 30.8459 262.743 31.6377 263.48 32.1331C264.223 32.6326 265.193 32.9092 266.215 32.9092Z" fill="white" stroke="#0E9CFF" stroke-width="2"/>
<path d="M278.656 81.8282C279.678 81.8282 280.648 81.5516 281.391 81.052C282.128 80.5566 282.735 79.7648 282.735 78.7588C282.735 77.7528 282.128 76.961 281.391 76.4656C280.648 75.966 279.678 75.6895 278.656 75.6895C277.634 75.6895 276.664 75.966 275.921 76.4656C275.184 76.961 274.577 77.7528 274.577 78.7588C274.577 79.7648 275.184 80.5566 275.921 81.052C276.664 81.5516 277.634 81.8282 278.656 81.8282Z" fill="white" stroke="#0E9CFF" stroke-width="2"/>
<path d="M291.097 16.6026C292.119 16.6026 293.088 16.326 293.832 15.8264C294.569 15.3311 295.176 14.5392 295.176 13.5332C295.176 12.5272 294.569 11.7354 293.832 11.24C293.088 10.7404 292.119 10.4639 291.097 10.4639C290.075 10.4639 289.105 10.7404 288.362 11.24C287.625 11.7354 287.018 12.5272 287.018 13.5332C287.018 14.5392 287.625 15.3311 288.362 15.8264C289.105 16.326 290.075 16.6026 291.097 16.6026Z" fill="white" stroke="#0E9CFF" stroke-width="2"/>
<path d="M303.537 138.901C304.559 138.901 305.529 138.625 306.272 138.125C307.009 137.63 307.616 136.838 307.616 135.832C307.616 134.826 307.009 134.034 306.272 133.539C305.529 133.039 304.559 132.763 303.537 132.763C302.516 132.763 301.546 133.039 300.802 133.539C300.065 134.034 299.458 134.826 299.458 135.832C299.458 136.838 300.065 137.63 300.802 138.125C301.546 138.625 302.516 138.901 303.537 138.901Z" fill="white" stroke="#0E9CFF" stroke-width="2"/>
<path d="M315.978 98.1348C317 98.1348 317.97 97.8582 318.713 97.3586C319.45 96.8633 320.057 96.0714 320.057 95.0654C320.057 94.0594 319.45 93.2676 318.713 92.7722C317.97 92.2727 317 91.9961 315.978 91.9961C314.956 91.9961 313.987 92.2727 313.243 92.7722C312.506 93.2676 311.899 94.0594 311.899 95.0654C311.899 96.0714 312.506 96.8633 313.243 97.3586C313.987 97.8582 314.956 98.1348 315.978 98.1348Z" fill="white" stroke="#0E9CFF" stroke-width="2"/>
<path d="M328.419 138.901C329.441 138.901 330.411 138.625 331.154 138.125C331.891 137.63 332.498 136.838 332.498 135.832C332.498 134.826 331.891 134.034 331.154 133.539C330.411 133.039 329.441 132.763 328.419 132.763C327.397 132.763 326.428 133.039 325.684 133.539C324.947 134.034 324.34 134.826 324.34 135.832C324.34 136.838 324.947 137.63 325.684 138.125C326.428 138.625 327.397 138.901 328.419 138.901Z" fill="white" stroke="#0E9CFF" stroke-width="2"/>
<path d="M340.86 106.288C341.882 106.288 342.852 106.012 343.595 105.512C344.332 105.017 344.939 104.225 344.939 103.219C344.939 102.213 344.332 101.421 343.595 100.926C342.852 100.426 341.882 100.149 340.86 100.149C339.838 100.149 338.868 100.426 338.125 100.926C337.388 101.421 336.781 102.213 336.781 103.219C336.781 104.225 337.388 105.017 338.125 105.512C338.868 106.012 339.838 106.288 340.86 106.288Z" fill="white" stroke="#0E9CFF" stroke-width="2"/>
<path d="M353.3 57.3692C354.322 57.3692 355.292 57.0926 356.035 56.593C356.772 56.0977 357.379 55.3058 357.379 54.2998C357.379 53.2938 356.772 52.502 356.035 52.0066C355.292 51.507 354.322 51.2305 353.3 51.2305C352.279 51.2305 351.309 51.507 350.566 52.0066C349.829 52.502 349.222 53.2938 349.222 54.2998C349.222 55.3058 349.829 56.0977 350.566 56.593C351.309 57.0926 352.279 57.3692 353.3 57.3692Z" fill="white" stroke="#0E9CFF" stroke-width="2"/>
<path d="M365.741 57.3692C366.763 57.3692 367.733 57.0926 368.476 56.593C369.213 56.0977 369.82 55.3058 369.82 54.2998C369.82 53.2938 369.213 52.502 368.476 52.0066C367.733 51.507 366.763 51.2305 365.741 51.2305C364.72 51.2305 363.75 51.507 363.007 52.0066C362.27 52.502 361.663 53.2938 361.663 54.2998C361.663 55.3058 362.27 56.0977 363.007 56.593C363.75 57.0926 364.72 57.3692 365.741 57.3692Z" fill="white" stroke="#0E9CFF" stroke-width="2"/>
<path d="M378.182 57.3692C379.204 57.3692 380.173 57.0926 380.917 56.593C381.654 56.0977 382.261 55.3058 382.261 54.2998C382.261 53.2938 381.654 52.502 380.917 52.0066C380.173 51.507 379.204 51.2305 378.182 51.2305C377.16 51.2305 376.19 51.507 375.447 52.0066C374.71 52.502 374.103 53.2938 374.103 54.2998C374.103 55.3058 374.71 56.0977 375.447 56.593C376.19 57.0926 377.16 57.3692 378.182 57.3692Z" fill="white" stroke="#0E9CFF" stroke-width="2"/>
<path d="M390.623 147.055C391.644 147.055 392.614 146.778 393.358 146.279C394.095 145.783 394.701 144.991 394.701 143.985C394.701 142.979 394.095 142.188 393.358 141.692C392.614 141.193 391.644 140.916 390.623 140.916C389.601 140.916 388.631 141.193 387.888 141.692C387.151 142.188 386.544 142.979 386.544 143.985C386.544 144.991 387.151 145.783 387.888 146.279C388.631 146.778 389.601 147.055 390.623 147.055Z" fill="white" stroke="#0E9CFF" stroke-width="2"/>
<path d="M403.064 138.901C404.085 138.901 405.055 138.625 405.798 138.125C406.535 137.63 407.142 136.838 407.142 135.832C407.142 134.826 406.535 134.034 405.798 133.539C405.055 133.039 404.085 132.763 403.064 132.763C402.042 132.763 401.072 133.039 400.329 133.539C399.592 134.034 398.985 134.826 398.985 135.832C398.985 136.838 399.592 137.63 400.329 138.125C401.072 138.625 402.042 138.901 403.064 138.901Z" fill="white" stroke="#0E9CFF" stroke-width="2"/>
<path d="M415.504 138.901C416.526 138.901 417.496 138.625 418.239 138.125C418.976 137.63 419.583 136.838 419.583 135.832C419.583 134.826 418.976 134.034 418.239 133.539C417.496 133.039 416.526 132.763 415.504 132.763C414.482 132.763 413.512 133.039 412.769 133.539C412.032 134.034 411.425 134.826 411.425 135.832C411.425 136.838 412.032 137.63 412.769 138.125C413.512 138.625 414.482 138.901 415.504 138.901Z" fill="white" stroke="#0E9CFF" stroke-width="2"/>
<path d="M427.944 122.595C428.966 122.595 429.936 122.318 430.679 121.819C431.416 121.323 432.023 120.531 432.023 119.525C432.023 118.519 431.416 117.728 430.679 117.232C429.936 116.733 428.966 116.456 427.944 116.456C426.923 116.456 425.953 116.733 425.21 117.232C424.473 117.728 423.866 118.519 423.866 119.525C423.866 120.531 424.473 121.323 425.21 121.819C425.953 122.318 426.923 122.595 427.944 122.595Z" fill="white" stroke="#0E9CFF" stroke-width="2"/>
<path d="M440.385 130.748C441.407 130.748 442.377 130.472 443.12 129.972C443.857 129.477 444.464 128.685 444.464 127.679C444.464 126.673 443.857 125.881 443.12 125.386C442.377 124.886 441.407 124.609 440.385 124.609C439.364 124.609 438.394 124.886 437.651 125.386C436.914 125.881 436.307 126.673 436.307 127.679C436.307 128.685 436.914 129.477 437.651 129.972C438.394 130.472 439.364 130.748 440.385 130.748Z" fill="white" stroke="#0E9CFF" stroke-width="2"/>
<path d="M452.826 89.9815C453.848 89.9815 454.818 89.7049 455.561 89.2053C456.298 88.71 456.905 87.9181 456.905 86.9121C456.905 85.9061 456.298 85.1143 455.561 84.6189C454.818 84.1193 453.848 83.8428 452.826 83.8428C451.805 83.8428 450.835 84.1193 450.091 84.6189C449.354 85.1143 448.748 85.9061 448.748 86.9121C448.748 87.9181 449.354 88.71 450.091 89.2053C450.835 89.7049 451.805 89.9815 452.826 89.9815Z" fill="white" stroke="#0E9CFF" stroke-width="2"/>
<path d="M465.267 171.514C466.288 171.514 467.258 171.237 468.002 170.738C468.739 170.242 469.346 169.45 469.346 168.444C469.346 167.438 468.739 166.647 468.002 166.151C467.258 165.652 466.288 165.375 465.267 165.375C464.245 165.375 463.275 165.652 462.532 166.151C461.795 166.647 461.188 167.438 461.188 168.444C461.188 169.45 461.795 170.242 462.532 170.738C463.275 171.237 464.245 171.514 465.267 171.514Z" fill="white" stroke="#0E9CFF" stroke-width="2"/>
<path d="M477.708 57.3692C478.729 57.3692 479.699 57.0926 480.443 56.593C481.18 56.0977 481.786 55.3058 481.786 54.2998C481.786 53.2938 481.18 52.502 480.443 52.0066C479.699 51.507 478.729 51.2305 477.708 51.2305C476.686 51.2305 475.716 51.507 474.973 52.0066C474.236 52.502 473.629 53.2938 473.629 54.2998C473.629 55.3058 474.236 56.0977 474.973 56.593C475.716 57.0926 476.686 57.3692 477.708 57.3692Z" fill="white" stroke="#0E9CFF" stroke-width="2"/>
<path d="M490.148 155.208C491.17 155.208 492.14 154.931 492.883 154.432C493.62 153.937 494.227 153.145 494.227 152.139C494.227 151.133 493.62 150.341 492.883 149.845C492.14 149.346 491.17 149.069 490.148 149.069C489.126 149.069 488.157 149.346 487.413 149.845C486.676 150.341 486.069 151.133 486.069 152.139C486.069 153.145 486.676 153.937 487.413 154.432C488.157 154.931 489.126 155.208 490.148 155.208Z" fill="white" stroke="#0E9CFF" stroke-width="2"/>
<path d="M502.589 114.441C503.61 114.441 504.58 114.165 505.323 113.665C506.06 113.17 506.667 112.378 506.667 111.372C506.667 110.366 506.06 109.574 505.323 109.079C504.58 108.579 503.61 108.303 502.589 108.303C501.567 108.303 500.597 108.579 499.854 109.079C499.117 109.574 498.51 110.366 498.51 111.372C498.51 112.378 499.117 113.17 499.854 113.665C500.597 114.165 501.567 114.441 502.589 114.441Z" fill="white" stroke="#0E9CFF" stroke-width="2"/>
<path d="M515.029 73.6758C516.051 73.6758 517.021 73.3992 517.764 72.8997C518.501 72.4043 519.108 71.6125 519.108 70.6065C519.108 69.6005 518.501 68.8086 517.764 68.3133C517.021 67.8137 516.051 67.5371 515.029 67.5371C514.008 67.5371 513.038 67.8137 512.295 68.3133C511.558 68.8086 510.951 69.6005 510.951 70.6065C510.951 71.6125 511.558 72.4043 512.295 72.8997C513.038 73.3992 514.008 73.6758 515.029 73.6758Z" fill="white" stroke="#0E9CFF" stroke-width="2"/>
<path d="M527.47 16.6026C528.492 16.6026 529.462 16.326 530.205 15.8264C530.942 15.3311 531.549 14.5392 531.549 13.5332C531.549 12.5272 530.942 11.7354 530.205 11.24C529.462 10.7404 528.492 10.4639 527.47 10.4639C526.449 10.4639 525.479 10.7404 524.736 11.24C523.999 11.7354 523.392 12.5272 523.392 13.5332C523.392 14.5392 523.999 15.3311 524.736 15.8264C525.479 16.326 526.449 16.6026 527.47 16.6026Z" fill="white" stroke="#0E9CFF" stroke-width="2"/>
<path d="M539.911 16.6026C540.933 16.6026 541.902 16.326 542.646 15.8264C543.383 15.3311 543.99 14.5392 543.99 13.5332C543.99 12.5272 543.383 11.7354 542.646 11.24C541.902 10.7404 540.933 10.4639 539.911 10.4639C538.889 10.4639 537.919 10.7404 537.176 11.24C536.439 11.7354 535.832 12.5272 535.832 13.5332C535.832 14.5392 536.439 15.3311 537.176 15.8264C537.919 16.326 538.889 16.6026 539.911 16.6026Z" fill="white" stroke="#0E9CFF" stroke-width="2"/>
<path d="M552.352 57.3692C553.373 57.3692 554.343 57.0926 555.087 56.593C555.824 56.0977 556.43 55.3058 556.43 54.2998C556.43 53.2938 555.824 52.502 555.087 52.0066C554.343 51.507 553.373 51.2305 552.352 51.2305C551.33 51.2305 550.36 51.507 549.617 52.0066C548.88 52.502 548.273 53.2938 548.273 54.2998C548.273 55.3058 548.88 56.0977 549.617 56.593C550.36 57.0926 551.33 57.3692 552.352 57.3692Z" fill="white" stroke="#0E9CFF" stroke-width="2"/>
<path d="M564.793 122.595C565.814 122.595 566.784 122.318 567.527 121.819C568.264 121.323 568.871 120.531 568.871 119.525C568.871 118.519 568.264 117.728 567.527 117.232C566.784 116.733 565.814 116.456 564.793 116.456C563.771 116.456 562.801 116.733 562.058 117.232C561.321 117.728 560.714 118.519 560.714 119.525C560.714 120.531 561.321 121.323 562.058 121.819C562.801 122.318 563.771 122.595 564.793 122.595Z" fill="white" stroke="#0E9CFF" stroke-width="2"/>
<path d="M577.234 24.7559C578.255 24.7559 579.225 24.4793 579.968 23.9797C580.705 23.4844 581.312 22.6925 581.312 21.6865C581.312 20.6805 580.705 19.8887 579.968 19.3933C579.225 18.8938 578.255 18.6172 577.234 18.6172C576.212 18.6172 575.242 18.8938 574.499 19.3933C573.762 19.8887 573.155 20.6805 573.155 21.6865C573.155 22.6925 573.762 23.4844 574.499 23.9797C575.242 24.4793 576.212 24.7559 577.234 24.7559Z" fill="white" stroke="#0E9CFF" stroke-width="2"/>
<path d="M589.674 130.748C590.696 130.748 591.666 130.472 592.409 129.972C593.146 129.477 593.753 128.685 593.753 127.679C593.753 126.673 593.146 125.881 592.409 125.386C591.666 124.886 590.696 124.609 589.674 124.609C588.653 124.609 587.683 124.886 586.94 125.386C586.203 125.881 585.596 126.673 585.596 127.679C585.596 128.685 586.203 129.477 586.94 129.972C587.683 130.472 588.653 130.748 589.674 130.748Z" fill="white" stroke="#0E9CFF" stroke-width="2"/>
<path d="M602.115 89.9815C603.137 89.9815 604.106 89.7049 604.85 89.2053C605.587 88.71 606.194 87.9181 606.194 86.9121C606.194 85.9061 605.587 85.1143 604.85 84.6189C604.106 84.1193 603.137 83.8428 602.115 83.8428C601.093 83.8428 600.123 84.1193 599.38 84.6189C598.643 85.1143 598.036 85.9061 598.036 86.9121C598.036 87.9181 598.643 88.71 599.38 89.2053C600.123 89.7049 601.093 89.9815 602.115 89.9815Z" fill="white" stroke="#0E9CFF" stroke-width="2"/>
<path d="M614.556 32.9092C615.578 32.9092 616.547 32.6326 617.291 32.1331C618.028 31.6377 618.635 30.8459 618.635 29.8399C618.635 28.8339 618.028 28.042 617.291 27.5467C616.547 27.0471 615.578 26.7705 614.556 26.7705C613.534 26.7705 612.564 27.0471 611.821 27.5467C611.084 28.042 610.477 28.8339 610.477 29.8399C610.477 30.8459 611.084 31.6377 611.821 32.1331C612.564 32.6326 613.534 32.9092 614.556 32.9092Z" fill="white" stroke="#0E9CFF" stroke-width="2"/>
<path d="M626.995 89.9815C628.017 89.9815 628.987 89.7049 629.73 89.2053C630.467 88.71 631.074 87.9181 631.074 86.9121C631.074 85.9061 630.467 85.1143 629.73 84.6189C628.987 84.1193 628.017 83.8428 626.995 83.8428C625.974 83.8428 625.004 84.1193 624.26 84.6189C623.523 85.1143 622.917 85.9061 622.917 86.9121C622.917 87.9181 623.523 88.71 624.26 89.2053C625.004 89.7049 625.974 89.9815 626.995 89.9815Z" fill="white" stroke="#0E9CFF" stroke-width="2"/>
<path d="M639.437 171.514C640.458 171.514 641.428 171.237 642.172 170.738C642.909 170.242 643.515 169.45 643.515 168.444C643.515 167.438 642.909 166.647 642.172 166.151C641.428 165.652 640.458 165.375 639.437 165.375C638.415 165.375 637.445 165.652 636.702 166.151C635.965 166.647 635.358 167.438 635.358 168.444C635.358 169.45 635.965 170.242 636.702 170.738C637.445 171.237 638.415 171.514 639.437 171.514Z" fill="white" stroke="#0E9CFF" stroke-width="2"/>
</svg>
