<svg width="283" height="240" viewBox="0 0 283 240" fill="none" xmlns="http://www.w3.org/2000/svg">
<path d="M138.979 0C166.626 -1.15468e-06 193.5 8.71649 215.434 24.7976C237.367 40.8787 253.135 63.4257 260.29 88.9417C267.446 114.458 265.59 141.517 255.01 165.922C244.43 190.327 225.717 210.715 201.774 223.923C177.831 237.131 149.996 242.421 122.586 238.973C95.1754 235.525 69.7217 223.532 50.1724 204.853C30.6232 186.174 18.0708 161.853 14.4621 135.663C10.8535 109.473 16.3903 82.877 30.2137 60L138.979 120L138.979 0Z" fill="#0364FF"/>
<path d="M30.2137 60C41.2366 41.7577 57.0909 26.6092 76.1832 16.077C95.2754 5.54475 116.933 -2.5119e-07 138.979 0V120L30.2137 60Z" fill="#FF7824"/>
<path d="M159.898 185.46L162.412 178.224H163.637L160.478 186.755H159.605L159.898 185.46ZM157.549 178.224L160.039 185.46L160.349 186.755H159.476L156.324 178.224H157.549ZM165.799 180.415V186.755H164.709V180.415H165.799ZM164.627 178.733C164.627 178.558 164.68 178.409 164.785 178.288C164.894 178.167 165.055 178.106 165.265 178.106C165.473 178.106 165.631 178.167 165.74 178.288C165.853 178.409 165.91 178.558 165.91 178.733C165.91 178.901 165.853 179.046 165.74 179.167C165.631 179.284 165.473 179.343 165.265 179.343C165.055 179.343 164.894 179.284 164.785 179.167C164.68 179.046 164.627 178.901 164.627 178.733ZM170.076 185.981C170.334 185.981 170.572 185.929 170.791 185.823C171.01 185.718 171.189 185.573 171.33 185.39C171.471 185.202 171.551 184.989 171.57 184.751H172.601C172.582 185.126 172.455 185.476 172.221 185.8C171.99 186.12 171.687 186.38 171.312 186.579C170.937 186.774 170.525 186.872 170.076 186.872C169.599 186.872 169.183 186.788 168.828 186.62C168.476 186.452 168.183 186.222 167.949 185.929C167.719 185.636 167.545 185.3 167.428 184.921C167.314 184.538 167.258 184.134 167.258 183.708V183.462C167.258 183.036 167.314 182.634 167.428 182.255C167.545 181.872 167.719 181.534 167.949 181.241C168.183 180.948 168.476 180.718 168.828 180.55C169.183 180.382 169.599 180.298 170.076 180.298C170.572 180.298 171.006 180.399 171.377 180.603C171.748 180.802 172.039 181.075 172.25 181.423C172.465 181.767 172.582 182.157 172.601 182.595H171.57C171.551 182.333 171.476 182.097 171.348 181.886C171.223 181.675 171.051 181.507 170.832 181.382C170.617 181.253 170.365 181.188 170.076 181.188C169.744 181.188 169.465 181.255 169.238 181.388C169.015 181.517 168.838 181.692 168.705 181.915C168.576 182.134 168.482 182.378 168.424 182.647C168.369 182.913 168.342 183.185 168.342 183.462V183.708C168.342 183.985 168.369 184.259 168.424 184.528C168.478 184.798 168.57 185.042 168.699 185.261C168.832 185.479 169.01 185.655 169.232 185.788C169.459 185.917 169.74 185.981 170.076 185.981ZM176.474 180.415V181.247H173.047V180.415H176.474ZM174.207 178.874H175.291V185.185C175.291 185.399 175.324 185.562 175.39 185.671C175.457 185.78 175.543 185.853 175.648 185.888C175.754 185.923 175.867 185.94 175.988 185.94C176.078 185.94 176.172 185.933 176.269 185.917C176.371 185.897 176.447 185.882 176.498 185.87L176.504 186.755C176.418 186.782 176.305 186.808 176.164 186.831C176.027 186.858 175.861 186.872 175.666 186.872C175.4 186.872 175.156 186.819 174.933 186.714C174.711 186.608 174.533 186.433 174.4 186.187C174.271 185.937 174.207 185.601 174.207 185.179V178.874ZM177.342 183.655V183.521C177.342 183.063 177.408 182.64 177.541 182.249C177.674 181.854 177.865 181.513 178.115 181.224C178.365 180.931 178.668 180.704 179.023 180.544C179.379 180.38 179.777 180.298 180.219 180.298C180.664 180.298 181.064 180.38 181.42 180.544C181.779 180.704 182.084 180.931 182.334 181.224C182.588 181.513 182.781 181.854 182.914 182.249C183.047 182.64 183.113 183.063 183.113 183.521V183.655C183.113 184.112 183.047 184.536 182.914 184.927C182.781 185.317 182.588 185.659 182.334 185.952C182.084 186.241 181.781 186.468 181.426 186.632C181.074 186.792 180.676 186.872 180.23 186.872C179.785 186.872 179.385 186.792 179.029 186.632C178.674 186.468 178.369 186.241 178.115 185.952C177.865 185.659 177.674 185.317 177.541 184.927C177.408 184.536 177.342 184.112 177.342 183.655ZM178.426 183.521V183.655C178.426 183.972 178.463 184.271 178.537 184.552C178.611 184.829 178.723 185.075 178.871 185.29C179.023 185.505 179.213 185.675 179.439 185.8C179.666 185.921 179.93 185.981 180.23 185.981C180.527 185.981 180.787 185.921 181.01 185.8C181.236 185.675 181.424 185.505 181.572 185.29C181.721 185.075 181.832 184.829 181.906 184.552C181.984 184.271 182.023 183.972 182.023 183.655V183.521C182.023 183.208 181.984 182.913 181.906 182.636C181.832 182.354 181.719 182.106 181.566 181.892C181.418 181.673 181.23 181.501 181.004 181.376C180.781 181.251 180.519 181.188 180.219 181.188C179.922 181.188 179.66 181.251 179.433 181.376C179.211 181.501 179.023 181.673 178.871 181.892C178.723 182.106 178.611 182.354 178.537 182.636C178.463 182.913 178.426 183.208 178.426 183.521ZM185.556 181.411V186.755H184.473V180.415H185.527L185.556 181.411ZM187.537 180.38L187.531 181.388C187.441 181.368 187.355 181.356 187.273 181.353C187.195 181.345 187.105 181.341 187.004 181.341C186.754 181.341 186.533 181.38 186.342 181.458C186.15 181.536 185.988 181.646 185.855 181.786C185.723 181.927 185.617 182.095 185.539 182.29C185.465 182.481 185.416 182.692 185.392 182.923L185.088 183.099C185.088 182.716 185.125 182.356 185.199 182.021C185.277 181.685 185.396 181.388 185.556 181.13C185.717 180.868 185.92 180.665 186.166 180.521C186.416 180.372 186.713 180.298 187.056 180.298C187.135 180.298 187.224 180.308 187.326 180.327C187.428 180.343 187.498 180.36 187.537 180.38ZM189.717 180.415V186.755H188.627V180.415H189.717ZM188.545 178.733C188.545 178.558 188.598 178.409 188.703 178.288C188.812 178.167 188.973 178.106 189.183 178.106C189.39 178.106 189.549 178.167 189.658 178.288C189.771 178.409 189.828 178.558 189.828 178.733C189.828 178.901 189.771 179.046 189.658 179.167C189.549 179.284 189.39 179.343 189.183 179.343C188.973 179.343 188.812 179.284 188.703 179.167C188.598 179.046 188.545 178.901 188.545 178.733ZM195.195 185.671V182.407C195.195 182.157 195.144 181.94 195.043 181.757C194.945 181.569 194.797 181.425 194.598 181.323C194.398 181.222 194.152 181.171 193.859 181.171C193.586 181.171 193.346 181.218 193.139 181.312C192.935 181.405 192.775 181.528 192.658 181.681C192.545 181.833 192.488 181.997 192.488 182.173H191.404C191.404 181.946 191.463 181.722 191.58 181.499C191.697 181.276 191.865 181.075 192.084 180.896C192.306 180.712 192.572 180.567 192.881 180.462C193.193 180.353 193.541 180.298 193.924 180.298C194.385 180.298 194.791 180.376 195.142 180.532C195.498 180.688 195.775 180.925 195.974 181.241C196.178 181.554 196.279 181.946 196.279 182.419V185.372C196.279 185.583 196.297 185.808 196.332 186.046C196.371 186.284 196.428 186.489 196.502 186.661V186.755H195.371C195.316 186.63 195.273 186.464 195.242 186.257C195.211 186.046 195.195 185.851 195.195 185.671ZM195.383 182.911L195.394 183.673H194.299C193.99 183.673 193.715 183.698 193.473 183.749C193.23 183.796 193.027 183.868 192.863 183.966C192.699 184.063 192.574 184.187 192.488 184.335C192.402 184.479 192.359 184.649 192.359 184.845C192.359 185.044 192.404 185.226 192.494 185.39C192.584 185.554 192.719 185.685 192.898 185.782C193.082 185.876 193.306 185.923 193.572 185.923C193.904 185.923 194.197 185.853 194.451 185.712C194.705 185.571 194.906 185.399 195.055 185.196C195.207 184.993 195.289 184.796 195.301 184.604L195.764 185.126C195.736 185.29 195.662 185.472 195.541 185.671C195.42 185.87 195.258 186.062 195.055 186.245C194.855 186.425 194.617 186.575 194.34 186.696C194.066 186.813 193.758 186.872 193.414 186.872C192.984 186.872 192.607 186.788 192.283 186.62C191.963 186.452 191.713 186.228 191.533 185.946C191.357 185.661 191.269 185.343 191.269 184.991C191.269 184.651 191.336 184.353 191.469 184.095C191.601 183.833 191.793 183.616 192.043 183.444C192.293 183.269 192.594 183.136 192.945 183.046C193.297 182.956 193.689 182.911 194.123 182.911H195.383Z" fill="white"/>
<path d="M84.8248 62.0459H83.0436L83.0553 61.126H84.8248C85.4342 61.126 85.942 60.999 86.3483 60.7451C86.7545 60.4873 87.0592 60.1279 87.2623 59.667C87.4694 59.2021 87.5729 58.6592 87.5729 58.0381V57.5166C87.5729 57.0283 87.5143 56.5947 87.3971 56.2158C87.2799 55.833 87.108 55.5107 86.8815 55.249C86.6549 54.9834 86.3776 54.7822 86.0495 54.6455C85.7252 54.5088 85.3522 54.4404 84.9303 54.4404H83.0084V53.5146H84.9303C85.4889 53.5146 85.9987 53.6084 86.4596 53.7959C86.9205 53.9795 87.317 54.2471 87.6491 54.5986C87.985 54.9463 88.2428 55.3682 88.4225 55.8643C88.6022 56.3564 88.692 56.9111 88.692 57.5283V58.0381C88.692 58.6553 88.6022 59.2119 88.4225 59.708C88.2428 60.2002 87.983 60.6201 87.6432 60.9678C87.3073 61.3154 86.901 61.583 86.4245 61.7705C85.9518 61.9541 85.4186 62.0459 84.8248 62.0459ZM83.6471 53.5146V62.0459H82.5163V53.5146H83.6471ZM92.858 62.1631C92.4166 62.1631 92.0163 62.0889 91.6569 61.9404C91.3014 61.7881 90.9948 61.5752 90.737 61.3018C90.483 61.0283 90.2877 60.7041 90.151 60.3291C90.0143 59.9541 89.9459 59.5439 89.9459 59.0986V58.8525C89.9459 58.3369 90.0221 57.8779 90.1745 57.4756C90.3268 57.0693 90.5338 56.7256 90.7955 56.4443C91.0573 56.1631 91.3541 55.9502 91.6862 55.8057C92.0182 55.6611 92.362 55.5889 92.7174 55.5889C93.1705 55.5889 93.5612 55.667 93.8893 55.8232C94.2213 55.9795 94.4928 56.1982 94.7038 56.4795C94.9147 56.7568 95.0709 57.085 95.1725 57.4639C95.2741 57.8389 95.3248 58.249 95.3248 58.6943V59.1807H90.5905V58.2959H94.2409V58.2139C94.2252 57.9326 94.1666 57.6592 94.0651 57.3936C93.9674 57.1279 93.8112 56.9092 93.5963 56.7373C93.3815 56.5654 93.0885 56.4795 92.7174 56.4795C92.4713 56.4795 92.2448 56.5322 92.0377 56.6377C91.8307 56.7393 91.653 56.8916 91.5045 57.0947C91.3561 57.2979 91.2409 57.5459 91.1588 57.8389C91.0768 58.1318 91.0358 58.4697 91.0358 58.8525V59.0986C91.0358 59.3994 91.0768 59.6826 91.1588 59.9482C91.2448 60.21 91.3678 60.4404 91.528 60.6396C91.692 60.8389 91.8893 60.9951 92.1198 61.1084C92.3541 61.2217 92.6198 61.2783 92.9166 61.2783C93.2995 61.2783 93.6237 61.2002 93.8893 61.0439C94.1549 60.8877 94.3873 60.6787 94.5866 60.417L95.2428 60.9385C95.1061 61.1455 94.9323 61.3428 94.7213 61.5303C94.5104 61.7178 94.2506 61.8701 93.942 61.9873C93.6373 62.1045 93.276 62.1631 92.858 62.1631ZM97.6745 56.7021V62.0459H96.5905V55.7061H97.6452L97.6745 56.7021ZM99.6549 55.6709L99.6491 56.6787C99.5592 56.6592 99.4733 56.6475 99.3913 56.6436C99.3131 56.6357 99.2233 56.6318 99.1217 56.6318C98.8717 56.6318 98.651 56.6709 98.4596 56.749C98.2682 56.8271 98.1061 56.9365 97.9733 57.0771C97.8405 57.2178 97.735 57.3857 97.6569 57.5811C97.5827 57.7725 97.5338 57.9834 97.5104 58.2139L97.2057 58.3896C97.2057 58.0068 97.2428 57.6475 97.317 57.3115C97.3952 56.9756 97.5143 56.6787 97.6745 56.4209C97.8346 56.1592 98.0377 55.9561 98.2838 55.8115C98.5338 55.6631 98.8307 55.5889 99.1745 55.5889C99.2526 55.5889 99.3424 55.5986 99.444 55.6182C99.5455 55.6338 99.6159 55.6514 99.6549 55.6709ZM101.741 56.7021V62.0459H100.657V55.7061H101.712L101.741 56.7021ZM103.721 55.6709L103.715 56.6787C103.626 56.6592 103.54 56.6475 103.458 56.6436C103.38 56.6357 103.29 56.6318 103.188 56.6318C102.938 56.6318 102.717 56.6709 102.526 56.749C102.335 56.8271 102.173 56.9365 102.04 57.0771C101.907 57.2178 101.801 57.3857 101.723 57.5811C101.649 57.7725 101.6 57.9834 101.577 58.2139L101.272 58.3896C101.272 58.0068 101.309 57.6475 101.383 57.3115C101.462 56.9756 101.581 56.6787 101.741 56.4209C101.901 56.1592 102.104 55.9561 102.35 55.8115C102.6 55.6631 102.897 55.5889 103.241 55.5889C103.319 55.5889 103.409 55.5986 103.51 55.6182C103.612 55.6338 103.682 55.6514 103.721 55.6709ZM104.319 58.9463V58.8115C104.319 58.3545 104.385 57.9307 104.518 57.54C104.651 57.1455 104.842 56.8037 105.092 56.5146C105.342 56.2217 105.645 55.9951 106.001 55.835C106.356 55.6709 106.755 55.5889 107.196 55.5889C107.641 55.5889 108.042 55.6709 108.397 55.835C108.756 55.9951 109.061 56.2217 109.311 56.5146C109.565 56.8037 109.758 57.1455 109.891 57.54C110.024 57.9307 110.09 58.3545 110.09 58.8115V58.9463C110.09 59.4033 110.024 59.8271 109.891 60.2178C109.758 60.6084 109.565 60.9502 109.311 61.2432C109.061 61.5322 108.758 61.7588 108.403 61.9229C108.051 62.083 107.653 62.1631 107.208 62.1631C106.762 62.1631 106.362 62.083 106.006 61.9229C105.651 61.7588 105.346 61.5322 105.092 61.2432C104.842 60.9502 104.651 60.6084 104.518 60.2178C104.385 59.8271 104.319 59.4033 104.319 58.9463ZM105.403 58.8115V58.9463C105.403 59.2627 105.44 59.5615 105.514 59.8428C105.589 60.1201 105.7 60.3662 105.848 60.5811C106.001 60.7959 106.19 60.9658 106.417 61.0908C106.643 61.2119 106.907 61.2725 107.208 61.2725C107.505 61.2725 107.764 61.2119 107.987 61.0908C108.214 60.9658 108.401 60.7959 108.549 60.5811C108.698 60.3662 108.809 60.1201 108.883 59.8428C108.962 59.5615 109.001 59.2627 109.001 58.9463V58.8115C109.001 58.499 108.962 58.2041 108.883 57.9268C108.809 57.6455 108.696 57.3975 108.544 57.1826C108.395 56.9639 108.208 56.792 107.981 56.667C107.758 56.542 107.497 56.4795 107.196 56.4795C106.899 56.4795 106.637 56.542 106.411 56.667C106.188 56.792 106.001 56.9639 105.848 57.1826C105.7 57.3975 105.589 57.6455 105.514 57.9268C105.44 58.2041 105.403 58.499 105.403 58.8115ZM114.104 55.7061V56.5381H110.676V55.7061H114.104ZM111.837 54.165H112.921V60.4756C112.921 60.6904 112.954 60.8525 113.02 60.9619C113.087 61.0713 113.173 61.1436 113.278 61.1787C113.383 61.2139 113.497 61.2314 113.618 61.2314C113.708 61.2314 113.801 61.2236 113.899 61.208C114.001 61.1885 114.077 61.1729 114.128 61.1611L114.133 62.0459C114.048 62.0732 113.934 62.0986 113.794 62.1221C113.657 62.1494 113.491 62.1631 113.296 62.1631C113.03 62.1631 112.786 62.1104 112.563 62.0049C112.34 61.8994 112.163 61.7236 112.03 61.4775C111.901 61.2275 111.837 60.8916 111.837 60.4697V54.165ZM119.114 60.9619V57.6982C119.114 57.4482 119.063 57.2314 118.962 57.0479C118.864 56.8604 118.715 56.7158 118.516 56.6143C118.317 56.5127 118.071 56.4619 117.778 56.4619C117.505 56.4619 117.264 56.5088 117.057 56.6025C116.854 56.6963 116.694 56.8193 116.577 56.9717C116.464 57.124 116.407 57.2881 116.407 57.4639H115.323C115.323 57.2373 115.381 57.0127 115.499 56.79C115.616 56.5674 115.784 56.3662 116.003 56.1865C116.225 56.0029 116.491 55.8584 116.799 55.7529C117.112 55.6436 117.46 55.5889 117.842 55.5889C118.303 55.5889 118.71 55.667 119.061 55.8232C119.417 55.9795 119.694 56.2158 119.893 56.5322C120.096 56.8447 120.198 57.2373 120.198 57.71V60.6631C120.198 60.874 120.215 61.0986 120.251 61.3369C120.29 61.5752 120.346 61.7803 120.421 61.9521V62.0459H119.29C119.235 61.9209 119.192 61.7549 119.161 61.5479C119.13 61.3369 119.114 61.1416 119.114 60.9619ZM119.301 58.2021L119.313 58.9639H118.217C117.909 58.9639 117.633 58.9893 117.391 59.04C117.149 59.0869 116.946 59.1592 116.782 59.2568C116.618 59.3545 116.493 59.4775 116.407 59.626C116.321 59.7705 116.278 59.9404 116.278 60.1357C116.278 60.335 116.323 60.5166 116.413 60.6807C116.503 60.8447 116.637 60.9756 116.817 61.0732C117.001 61.167 117.225 61.2139 117.491 61.2139C117.823 61.2139 118.116 61.1436 118.37 61.0029C118.624 60.8623 118.825 60.6904 118.973 60.4873C119.126 60.2842 119.208 60.0869 119.219 59.8955L119.682 60.417C119.655 60.5811 119.581 60.7627 119.46 60.9619C119.339 61.1611 119.176 61.3525 118.973 61.5361C118.774 61.7158 118.536 61.8662 118.258 61.9873C117.985 62.1045 117.676 62.1631 117.333 62.1631C116.903 62.1631 116.526 62.0791 116.202 61.9111C115.881 61.7432 115.631 61.5186 115.452 61.2373C115.276 60.9521 115.188 60.6338 115.188 60.2822C115.188 59.9424 115.255 59.6436 115.387 59.3857C115.52 59.124 115.712 58.9072 115.962 58.7354C116.212 58.5596 116.512 58.4268 116.864 58.3369C117.215 58.2471 117.608 58.2021 118.042 58.2021H119.301Z" fill="white"/>
</svg>
