<svg width="150" height="150" viewBox="0 0 150 150" fill="none" xmlns="http://www.w3.org/2000/svg">
<path d="M92.3112 34.614C73.1949 34.614 34.9028 19.1173 34.9028 0H34.6198C34.6198 15.3006 40.6977 29.9745 51.5167 40.7938C62.3356 51.6131 77.0091 57.6916 92.3098 57.6922C101.49 57.6922 110.295 61.3391 116.786 67.8306C123.278 74.3221 126.925 83.1266 126.925 92.3069C126.927 101.487 123.282 110.293 116.791 116.786C110.301 123.279 101.497 126.927 92.317 126.93C83.136 126.931 74.3307 123.285 67.8378 116.795C61.3449 110.305 57.6962 101.501 57.6944 92.3206C57.6941 84.7442 56.2017 77.242 53.3022 70.2427C50.4026 63.2432 46.1529 56.8833 40.7954 51.5262C35.438 46.1691 29.0779 41.9197 22.0782 39.0206C15.0785 36.1216 7.57629 34.6296 0 34.6299V34.9107C19.1137 34.9107 34.6105 73.1863 34.6176 92.3062H34.614C34.6139 103.717 37.9973 114.871 44.3364 124.359C50.6755 133.846 59.6856 141.241 70.2273 145.607C80.7692 149.975 92.3689 151.118 103.561 148.891C114.751 146.666 125.031 141.172 133.1 133.104C141.169 125.036 146.664 114.756 148.891 103.565C151.118 92.374 149.975 80.7742 145.609 70.232C141.244 59.6899 133.85 50.6791 124.363 44.3392C114.875 37.9992 103.721 34.6149 92.3112 34.614Z" fill="url(#paint0_linear_352_1850)"/>
<defs>
<linearGradient id="paint0_linear_352_1850" x1="119.55" y1="129.75" x2="32.4" y2="10.05" gradientUnits="userSpaceOnUse">
<stop offset="0.295" stop-color="#E73959"/>
<stop offset="0.384" stop-color="#E73D58"/>
<stop offset="0.477" stop-color="#E74955"/>
<stop offset="0.571" stop-color="#E95E51"/>
<stop offset="0.666" stop-color="#EA7B4B"/>
<stop offset="0.761" stop-color="#EDA044"/>
<stop offset="0.857" stop-color="#EFCE3B"/>
<stop offset="0.868" stop-color="#F0D43A"/>
</linearGradient>
</defs>
</svg>
